<?xml version="1.0" standalone="no"?>
<!DOCTYPE svg PUBLIC "-//W3C//DTD SVG 20010904//EN"
 "http://www.w3.org/TR/2001/REC-SVG-20010904/DTD/svg10.dtd">
<svg version="1.0" xmlns="http://www.w3.org/2000/svg"
 width="1024.000000pt" height="1024.000000pt" viewBox="0 0 1024.000000 1024.000000"
 preserveAspectRatio="xMidYMid meet">
<metadata>
Created by potrace 1.11, written by Peter Selinger 2001-2013
</metadata>
<g transform="translate(0.000000,1024.000000) scale(0.100000,-0.100000)"
fill="#000000" stroke="none">
<path d="M3828 8205 c-2 -1 -37 -6 -78 -9 -88 -8 -127 -13 -195 -26 -27 -5
-61 -11 -75 -14 -110 -19 -341 -85 -465 -133 -49 -19 -173 -75 -275 -123 -217
-104 -335 -148 -445 -166 -16 -3 -36 -7 -43 -9 -52 -18 -276 -24 -406 -12
-120 12 -390 81 -420 109 -6 4 -16 8 -23 8 -31 0 -143 63 -326 183 -108 71
-199 128 -201 126 -19 -25 -846 -1271 -848 -1278 -4 -12 248 -180 386 -258
224 -126 582 -275 737 -307 60 -12 184 -40 187 -41 1 -2 -10 -49 -26 -106 -25
-89 -58 -253 -76 -379 -16 -111 -19 -391 -18 -1895 0 -913 1 -1676 1 -1695 l1
-35 820 0 820 0 1 1650 c0 907 2 1677 4 1710 4 87 13 137 41 233 141 485 596
824 1109 825 162 0 254 -15 400 -64 438 -149 750 -553 771 -999 3 -63 7 -844
7 -1735 l2 -1620 810 -1 c446 0 815 1 820 3 11 4 13 3472 2 3528 -3 17 -9 59
-12 95 -4 36 -9 74 -11 85 -2 10 -6 37 -9 60 -10 65 -65 283 -97 380 -232 704
-755 1299 -1428 1626 -189 92 -408 172 -560 204 -8 2 -44 10 -80 19 -36 8 -83
18 -105 21 -22 4 -47 8 -55 10 -8 2 -44 7 -80 11 -36 3 -91 9 -123 13 -54 7
-432 12 -439 6z"/>
<path d="M9017 4424 c-1 -1 -40 -4 -85 -8 -46 -3 -103 -11 -125 -16 -23 -5
-53 -11 -67 -13 -14 -3 -54 -15 -90 -27 -487 -164 -813 -619 -812 -1135 0 -90
13 -203 33 -278 59 -224 158 -398 318 -557 178 -177 366 -277 620 -329 115
-23 337 -22 454 3 497 107 861 489 942 991 13 77 13 288 1 365 -22 140 -81
295 -160 425 -85 142 -163 227 -324 356 -31 25 -168 101 -225 125 -73 31 -204
70 -267 79 -47 7 -210 22 -213 19z"/>
</g>
</svg>
