<svg xmlns="http://www.w3.org/2000/svg" viewBox="0 0 1621.2 249" id="natsana_logo">
	<g id="Ebene_2" data-name="Ebene 2">
		<g id="Ebene_1-2" data-name="Ebene 1">
			<path d="M340.77,49.26c26.4,0,46.68,13.39,55.1,25.64V53.47h52.42V244.79H395.87V223.36c-8.42,12.25-28.7,25.64-55.1,25.64-50.9,0-89.93-45.53-89.93-99.87s39-99.87,89.93-99.87m11.09,47.83c-28.69,0-48.21,22.19-48.21,52s19.52,52,48.21,52,48.21-22.19,48.21-52-19.51-52-48.21-52"/><path d="M748.27,249c-49.36,0-84.57-27.55-86.48-65.05h54.72c1.92,16.84,16.45,24.87,33.29,24.87,16.46,0,24.87-6.12,24.87-15.3,0-10-7.26-14.93-24.1-19.14l-36-9.18C681.31,156.78,666,133.82,666,105.89c0-32.91,29.08-56.63,76.92-56.63,42.09,0,74.23,22.19,77.29,60.46h-52.8c-2.69-14.54-13.78-19.52-25.26-19.52-13.39,0-22.58,5.36-22.58,14.54,0,10.72,10.34,14.92,21.82,17.6l33.67,9.19c37.49,9.56,53.19,29.46,53.19,59.31,0,36-33.68,58.16-80,58.16"/><path d="M1398.1,49.26c26.41,0,46.69,13.39,55.1,25.64V53.47h52.43V244.79H1453.2V223.36c-8.41,12.25-28.69,25.64-55.1,25.64-50.89,0-89.92-45.53-89.92-99.87s39-99.87,89.92-99.87m11.1,47.83c-28.7,0-48.22,22.19-48.22,52s19.52,52,48.22,52,48.21-22.19,48.21-52-19.51-52-48.21-52"/><path d="M1582.93,248.85a38.27,38.27,0,1,1,38.27-38.26,38.37,38.37,0,0,1-38.27,38.26"/><path d="M942.14,49.26c26.4,0,46.68,13.39,55.1,25.64V53.47h52.42V244.79H997.24V223.36c-8.42,12.25-28.7,25.64-55.1,25.64-50.9,0-89.92-45.53-89.92-99.87s39-99.87,89.92-99.87m11.09,47.83c-28.69,0-48.21,22.19-48.21,52s19.52,52,48.21,52,48.22-22.19,48.22-52-19.51-52-48.22-52"/><path d="M128.79,49.46a90.55,90.55,0,0,0-41.54,10c-.67.3-1.36.63-2.1,1C66.75,69.92,49.7,64.81,39,59.23l-11.39-7.6L0,93,8.74,98.8c8,4.82,20.45,11.19,33.78,13.44a88.18,88.18,0,0,0-4.06,26.48V244.48H91.27V138.72c0-20.11,16.83-36.46,37.52-36.46s37.51,16.35,37.51,36.46V244.48h52.81V138.72c0-49.22-40.52-89.26-90.32-89.26"/><path d="M1274.49,244.79h-52.84V139c0-20.11-16.84-36.47-37.54-36.47s-37.53,16.36-37.53,36.47V244.79h-52.84V139c0-49.24,40.54-89.31,90.37-89.31s90.38,40.07,90.38,89.31Z"/><path d="M635.89,195.17l-32-.07c-20.71,0-31.8-14.06-31.8-34.19V99.23h56.29v-46H572.07V0H519.58V53.26h-41v46h40.66v65.13c0,49.28,30.21,80.16,80.07,80.16h37.06Z"/>
		</g>
	</g>
</svg>