<svg xmlns="http://www.w3.org/2000/svg" viewBox="0 0 696.47 421.38"><g id="Ebene_2" data-name="Ebene 2"><g id="Ebene_1-2" data-name="Ebene 1"><path d="M615.18,421.38a81.27,81.27,0,1,1,81.29-81.27,81.51,81.51,0,0,1-81.29,81.27"/><path d="M273.53,0A192.36,192.36,0,0,0,185.3,21.33c-1.41.64-2.88,1.34-4.46,2.15-39.07,20-75.29,9.13-98-2.71L58.67,4.61,0,92.41l18.56,12.4C35.45,115,62,128.57,90.31,133.34a186.9,186.9,0,0,0-8.62,56.24V414.22H193.85V189.58c0-42.7,35.74-77.42,79.68-77.42s79.68,34.72,79.68,77.42V414.22H465.36V189.58C465.36,85.05,379.3,0,273.53,0"/></g></g></svg>